<svg xmlns="http://www.w3.org/2000/svg" width="21.033" height="21.033" viewBox="0 0 21.033 21.033">
  <path id="Path_1587" data-name="Path 1587" d="M17.111,3.422V.856A.856.856,0,0,0,16.256,0H4.278a.856.856,0,0,0-.856.856V3.422H2.567A2.567,2.567,0,0,0,0,5.989V17.967a2.567,2.567,0,0,0,2.567,2.567h15.4a2.567,2.567,0,0,0,2.567-2.567V5.989a2.567,2.567,0,0,0-2.567-2.567Zm-11.978,0H15.4V1.711H5.133Zm9.411,6.844h4.278v3.422H14.544a1.711,1.711,0,1,1,0-3.422Zm0-1.711h4.278V5.989a.856.856,0,0,0-.856-.856H2.567a.856.856,0,0,0-.856.856V17.967a.856.856,0,0,0,.856.856h15.4a.856.856,0,0,0,.856-.856V15.4H14.544a3.422,3.422,0,1,1,0-6.844Z" transform="translate(0.25 0.25)" fill="#fff" stroke="#fff" stroke-width="0.5" fill-rule="evenodd"/>
</svg>
