<svg xmlns="http://www.w3.org/2000/svg" width="373.989" height="458.281" viewBox="0 0 373.989 458.281">
  <g id="Group_621" data-name="Group 621" transform="translate(-1278.713 -2039.605)">
    <g id="Group_602" data-name="Group 602" transform="translate(1421.73 2098.854) rotate(27)">
      <g id="Group_410" data-name="Group 410" transform="matrix(-0.105, -0.995, 0.995, -0.105, 2.309, 25.168)">
        <path id="Path_1592" data-name="Path 1592" d="M14.634,10.613c.547.729,1.831,5.659.994,8.218s-5.844,7.1-12.288,4.122-1.58-12.34-1.58-12.34S4.373-1.18,10.391.1a4.21,4.21,0,0,1,2.85,1.909c1.025,1.729.418,4.946.418,4.946C13.807,8.994,14.086,9.884,14.634,10.613Z" transform="translate(1.535 0)" fill="#ffb333"/>
        <ellipse id="Ellipse_12" data-name="Ellipse 12" cx="3.039" cy="4.103" rx="3.039" ry="4.103" transform="matrix(0.914, -0.407, 0.407, 0.914, 13.203, 23.069)" fill="#ffb333"/>
        <ellipse id="Ellipse_13" data-name="Ellipse 13" cx="1.976" cy="2.584" rx="1.976" ry="2.584" transform="matrix(0.914, -0.407, 0.407, 0.914, 9.668, 24.949)" fill="#ffb333"/>
        <ellipse id="Ellipse_14" data-name="Ellipse 14" cx="1.809" cy="2.366" rx="1.809" ry="2.366" transform="matrix(0.914, -0.407, 0.407, 0.914, 5.956, 25.347)" fill="#ffb333"/>
        <ellipse id="Ellipse_15" data-name="Ellipse 15" cx="1.672" cy="2.28" rx="1.672" ry="2.28" transform="translate(2.322 23.921) rotate(-13)" fill="#ffb333"/>
        <ellipse id="Ellipse_16" data-name="Ellipse 16" cx="1.368" cy="1.976" rx="1.368" ry="1.976" transform="matrix(0.996, -0.087, 0.087, 0.996, 0, 21.32)" fill="#ffb333"/>
      </g>
      <path id="Path_1593" data-name="Path 1593" d="M10.619,7.7c.4.529,1.329,4.106.722,5.963a6.561,6.561,0,0,1-8.917,2.991C-2.252,14.495,1.277,7.7,1.277,7.7S3.174-.856,7.541.07A3.055,3.055,0,0,1,9.608,1.455c.744,1.255.3,3.589.3,3.589A4.652,4.652,0,0,0,10.619,7.7Z" transform="matrix(-0.105, -0.995, 0.995, -0.105, 5.186, 21.129)" fill="#ffc96f"/>
    </g>
    <g id="Group_604" data-name="Group 604" transform="translate(1612.618 2275.002) rotate(101)">
      <g id="Group_410-2" data-name="Group 410" transform="matrix(-0.105, -0.995, 0.995, -0.105, 2.309, 25.168)">
        <path id="Path_1592-2" data-name="Path 1592" d="M14.634,10.613c.547.729,1.831,5.659.994,8.218s-5.844,7.1-12.288,4.122-1.58-12.34-1.58-12.34S4.373-1.18,10.391.1a4.21,4.21,0,0,1,2.85,1.909c1.025,1.729.418,4.946.418,4.946C13.807,8.994,14.086,9.884,14.634,10.613Z" transform="translate(1.535 0)" fill="#ffb333"/>
        <ellipse id="Ellipse_12-2" data-name="Ellipse 12" cx="3.039" cy="4.103" rx="3.039" ry="4.103" transform="matrix(0.914, -0.407, 0.407, 0.914, 13.203, 23.069)" fill="#ffb333"/>
        <ellipse id="Ellipse_13-2" data-name="Ellipse 13" cx="1.976" cy="2.584" rx="1.976" ry="2.584" transform="matrix(0.914, -0.407, 0.407, 0.914, 9.668, 24.949)" fill="#ffb333"/>
        <ellipse id="Ellipse_14-2" data-name="Ellipse 14" cx="1.809" cy="2.366" rx="1.809" ry="2.366" transform="matrix(0.914, -0.407, 0.407, 0.914, 5.956, 25.347)" fill="#ffb333"/>
        <ellipse id="Ellipse_15-2" data-name="Ellipse 15" cx="1.672" cy="2.28" rx="1.672" ry="2.28" transform="translate(2.322 23.921) rotate(-13)" fill="#ffb333"/>
        <ellipse id="Ellipse_16-2" data-name="Ellipse 16" cx="1.368" cy="1.976" rx="1.368" ry="1.976" transform="matrix(0.996, -0.087, 0.087, 0.996, 0, 21.32)" fill="#ffb333"/>
      </g>
      <path id="Path_1593-2" data-name="Path 1593" d="M10.619,7.7c.4.529,1.329,4.106.722,5.963a6.561,6.561,0,0,1-8.917,2.991C-2.252,14.495,1.277,7.7,1.277,7.7S3.174-.856,7.541.07A3.055,3.055,0,0,1,9.608,1.455c.744,1.255.3,3.589.3,3.589A4.652,4.652,0,0,0,10.619,7.7Z" transform="matrix(-0.105, -0.995, 0.995, -0.105, 5.186, 21.129)" fill="#ffc96f"/>
    </g>
    <g id="Group_603" data-name="Group 603" transform="matrix(-0.643, 0.766, -0.766, -0.643, 1535.996, 2439.607)">
      <g id="Group_410-3" data-name="Group 410" transform="matrix(-0.105, -0.995, 0.995, -0.105, 2.309, 25.168)">
        <path id="Path_1592-3" data-name="Path 1592" d="M14.634,10.613c.547.729,1.831,5.659.994,8.218s-5.844,7.1-12.288,4.122-1.58-12.34-1.58-12.34S4.373-1.18,10.391.1a4.21,4.21,0,0,1,2.85,1.909c1.025,1.729.418,4.946.418,4.946C13.807,8.994,14.086,9.884,14.634,10.613Z" transform="translate(1.535 0)" fill="#ffb333"/>
        <ellipse id="Ellipse_12-3" data-name="Ellipse 12" cx="3.039" cy="4.103" rx="3.039" ry="4.103" transform="matrix(0.914, -0.407, 0.407, 0.914, 13.203, 23.069)" fill="#ffb333"/>
        <ellipse id="Ellipse_13-3" data-name="Ellipse 13" cx="1.976" cy="2.584" rx="1.976" ry="2.584" transform="matrix(0.914, -0.407, 0.407, 0.914, 9.668, 24.949)" fill="#ffb333"/>
        <ellipse id="Ellipse_14-3" data-name="Ellipse 14" cx="1.809" cy="2.366" rx="1.809" ry="2.366" transform="matrix(0.914, -0.407, 0.407, 0.914, 5.956, 25.347)" fill="#ffb333"/>
        <ellipse id="Ellipse_15-3" data-name="Ellipse 15" cx="1.672" cy="2.28" rx="1.672" ry="2.28" transform="translate(2.322 23.921) rotate(-13)" fill="#ffb333"/>
        <ellipse id="Ellipse_16-3" data-name="Ellipse 16" cx="1.368" cy="1.976" rx="1.368" ry="1.976" transform="matrix(0.996, -0.087, 0.087, 0.996, 0, 21.32)" fill="#ffb333"/>
      </g>
      <path id="Path_1593-3" data-name="Path 1593" d="M10.619,7.7c.4.529,1.329,4.106.722,5.963a6.561,6.561,0,0,1-8.917,2.991C-2.252,14.495,1.277,7.7,1.277,7.7S3.174-.856,7.541.07A3.055,3.055,0,0,1,9.608,1.455c.744,1.255.3,3.589.3,3.589A4.652,4.652,0,0,0,10.619,7.7Z" transform="matrix(-0.105, -0.995, 0.995, -0.105, 5.186, 21.129)" fill="#ffc96f"/>
    </g>
    <path id="Path_1739" data-name="Path 1739" d="M0,0C129.823,2.692,236.966,92.589,239.311,200.79s-101,193.733-230.82,191.04" transform="translate(1281.37 2131.909) rotate(-22)" fill="none" stroke="#ffc96f" stroke-linecap="round" stroke-width="4" stroke-dasharray="1 10"/>
  </g>
</svg>
