<svg xmlns="http://www.w3.org/2000/svg" width="626.708" height="113.638" viewBox="0 0 626.708 113.638">
  <g id="Group_1831" data-name="Group 1831" transform="translate(-510.174 -2833.477)">
    <g id="Group_1830" data-name="Group 1830">
      <g id="Group_605" data-name="Group 605" transform="translate(513 2884.102)">
        <path id="Path_1738" data-name="Path 1738" d="M551.2,2141.442s121.3,110.8,238.054-6.242" transform="translate(-551.2 -2137.2)" fill="none" stroke="#ffc96f" stroke-linecap="round" stroke-width="4" stroke-dasharray="1 10"/>
        <g id="Group_604" data-name="Group 604" transform="translate(100.723 45.471) rotate(-13)">
          <g id="Group_410" data-name="Group 410" transform="matrix(-0.105, 0.995, -0.995, -0.105, 31.902, 3.116)">
            <path id="Path_1592" data-name="Path 1592" d="M14.273,12.989c.534-.712,1.786-5.519.97-8.016S9.543-1.952,3.258.953,1.716,12.989,1.716,12.989s2.549,11.5,8.419,10.257a4.106,4.106,0,0,0,2.779-1.862c1-1.686.408-4.824.408-4.824C13.467,14.568,13.739,13.7,14.273,12.989Z" transform="translate(1.497 6.472)" fill="#ffb333"/>
            <ellipse id="Ellipse_12" data-name="Ellipse 12" cx="2.965" cy="4.002" rx="2.965" ry="4.002" transform="matrix(0.914, 0.407, -0.407, 0.914, 16.134, 0)" fill="#ffb333"/>
            <ellipse id="Ellipse_13" data-name="Ellipse 13" cx="1.927" cy="2.52" rx="1.927" ry="2.52" transform="matrix(0.914, 0.407, -0.407, 0.914, 11.48, 0.874)" fill="#ffb333"/>
            <ellipse id="Ellipse_14" data-name="Ellipse 14" cx="1.765" cy="2.308" rx="1.765" ry="2.308" transform="matrix(0.914, 0.407, -0.407, 0.914, 7.686, 0.874)" fill="#ffb333"/>
            <ellipse id="Ellipse_15" data-name="Ellipse 15" cx="1.63" cy="2.223" rx="1.63" ry="2.223" transform="translate(3.266 2.149) rotate(13)" fill="#ffb333"/>
            <ellipse id="Ellipse_16" data-name="Ellipse 16" cx="1.334" cy="1.927" rx="1.334" ry="1.927" transform="matrix(0.996, 0.087, -0.087, 0.996, 0.336, 5.179)" fill="#ffb333"/>
          </g>
          <path id="Path_1593" data-name="Path 1593" d="M10.357,9.426c.387-.516,1.3-4.005.7-5.817A6.4,6.4,0,0,0,2.364.692C-2.2,2.8,1.245,9.426,1.245,9.426s1.85,8.347,6.109,7.443a2.98,2.98,0,0,0,2.017-1.351c.725-1.224.3-3.5.3-3.5A4.537,4.537,0,0,1,10.357,9.426Z" transform="matrix(-0.105, 0.995, -0.995, -0.105, 21.903, 5.71)" fill="#ffc96f"/>
        </g>
      </g>
      <g id="Group_618" data-name="Group 618" transform="translate(896 2827.102)">
        <path id="Path_1738-2" data-name="Path 1738" d="M551.2,2182.646s121.3-110.8,238.054,6.242" transform="translate(-551.2 -2117.499)" fill="none" stroke="#ffc96f" stroke-linecap="round" stroke-width="4" stroke-dasharray="1 10"/>
        <g id="Group_604-2" data-name="Group 604" transform="translate(106.246 0) rotate(13)">
          <g id="Group_410-2" data-name="Group 410" transform="matrix(-0.105, -0.995, 0.995, -0.105, 2.253, 24.548)">
            <path id="Path_1592-2" data-name="Path 1592" d="M14.273,10.352c.534.712,1.786,5.519.97,8.016s-5.7,6.926-11.985,4.02S1.716,10.352,1.716,10.352,4.266-1.151,10.135.094a4.106,4.106,0,0,1,2.779,1.862c1,1.686.408,4.824.408,4.824C13.467,8.773,13.739,9.64,14.273,10.352Z" transform="translate(1.497 0)" fill="#ffb333"/>
            <ellipse id="Ellipse_12-2" data-name="Ellipse 12" cx="2.965" cy="4.002" rx="2.965" ry="4.002" transform="matrix(0.914, -0.407, 0.407, 0.914, 12.878, 22.501)" fill="#ffb333"/>
            <ellipse id="Ellipse_13-2" data-name="Ellipse 13" cx="1.927" cy="2.52" rx="1.927" ry="2.52" transform="matrix(0.914, -0.407, 0.407, 0.914, 9.43, 24.335)" fill="#ffb333"/>
            <ellipse id="Ellipse_14-2" data-name="Ellipse 14" cx="1.765" cy="2.308" rx="1.765" ry="2.308" transform="matrix(0.914, -0.407, 0.407, 0.914, 5.809, 24.722)" fill="#ffb333"/>
            <ellipse id="Ellipse_15-2" data-name="Ellipse 15" cx="1.63" cy="2.223" rx="1.63" ry="2.223" transform="translate(2.265 23.332) rotate(-13)" fill="#ffb333"/>
            <ellipse id="Ellipse_16-2" data-name="Ellipse 16" cx="1.334" cy="1.927" rx="1.334" ry="1.927" transform="matrix(0.996, -0.087, 0.087, 0.996, 0, 20.795)" fill="#ffb333"/>
          </g>
          <path id="Path_1593-2" data-name="Path 1593" d="M10.357,7.512c.387.516,1.3,4.005.7,5.817a6.4,6.4,0,0,1-8.7,2.917C-2.2,14.137,1.245,7.512,1.245,7.512S3.1-.835,7.355.068A2.98,2.98,0,0,1,9.372,1.42c.725,1.224.3,3.5.3,3.5A4.537,4.537,0,0,0,10.357,7.512Z" transform="matrix(-0.105, -0.995, 0.995, -0.105, 5.058, 20.609)" fill="#ffc96f"/>
        </g>
      </g>
    </g>
  </g>
</svg>
